{
  "accessors": [
    {
      "bufferView": 2,
      "componentType": 5126,
      "count": 585,
      "max": [
        1.3362274169921875,
        0.8191208243370056,
        1.0787016153335571
      ],
      "min": [
        -1.3362274169921875,
        -1.2603507041931152,
        -6.01973819732666
      ],
      "type": "VEC3"
    },
    {
      "bufferView": 2,
      "byteOffset": 7020,
      "componentType": 5126,
      "count": 585,
      "max": [
        0.9998482465744019,
        0.9999340176582336,
        0.9893576502799988
      ],
      "min": [
        -0.9998482465744019,
        -0.9998955726623535,
        -0.9984139800071716
      ],
      "type": "VEC3"
    },
    {
      "bufferView": 1,
      "componentType": 5126,
      "count": 585,
      "max": [
        0.8750001192092896,
        1.0000001192092896
      ],
      "min": [
        0.0,
        0.0
      ],
      "type": "VEC2"
    },
    {
      "bufferView": 0,
      "componentType": 5125,
      "count": 2634,
      "type": "SCALAR"
    },
    {
      "bufferView": 2,
      "byteOffset": 14040,
      "componentType": 5126,
      "count": 680,
      "max": [
        4.225821495056152,
        0.66129469871521,
        2.1554882526397705
      ],
      "min": [
        -4.225821495056152,
        -0.9532816410064697,
        -1.0287917852401733
      ],
      "type": "VEC3"
    },
    {
      "bufferView": 2,
      "byteOffset": 22200,
      "componentType": 5126,
      "count": 680,
      "max": [
        0.9869827032089233,
        0.9998786449432373,
        0.9965366721153259
      ],
      "min": [
        -0.9869828224182129,
        -0.9995670914649963,
        -0.9968152046203613
      ],
      "type": "VEC3"
    },
    {
      "bufferView": 1,
      "byteOffset": 4680,
      "componentType": 5126,
      "count": 680,
      "max": [
        0.8750001192092896,
        1.0000001192092896
      ],
      "min": [
        0.0,
        0.0
      ],
      "type": "VEC2"
    },
    {
      "bufferView": 0,
      "byteOffset": 10536,
      "componentType": 5125,
      "count": 3306,
      "type": "SCALAR"
    }
  ],
  "asset": {
    "extras": {
      "author": "Seifert (https://sketchfab.com/Peter_Seifert)",
      "license": "CC-BY-4.0 (http://creativecommons.org/licenses/by/4.0/)",
      "source": "https://sketchfab.com/3d-models/stylized-male-body-base-mesh-low-poly-9d76397c9fb34e6ca04646c2e75dcf8d",
      "title": "Stylized Male body Base mesh - Low Poly"
    },
    "generator": "Sketchfab-16.28.0",
    "version": "2.0"
  },
  "bufferViews": [
    {
      "buffer": 0,
      "byteLength": 23760,
      "name": "floatBufferViews",
      "target": 34963
    },
    {
      "buffer": 0,
      "byteLength": 10120,
      "byteOffset": 23760,
      "byteStride": 8,
      "name": "floatBufferViews",
      "target": 34962
    },
    {
      "buffer": 0,
      "byteLength": 30360,
      "byteOffset": 33880,
      "byteStride": 12,
      "name": "floatBufferViews",
      "target": 34962
    }
  ],
  "buffers": [
    {
      "byteLength": 64240,
      "uri": "scene.bin"
    }
  ],
  "materials": [
    {
      "doubleSided": true,
      "name": "Material.001",
      "pbrMetallicRoughness": {
        "baseColorFactor": [
          0.8,
          0.8,
          0.8,
          1.0
        ],
        "metallicFactor": 0.0,
        "roughnessFactor": 0.8211145618000169
      }
    },
    {
      "doubleSided": true,
      "name": "Material.002",
      "pbrMetallicRoughness": {
        "baseColorFactor": [
          0.8,
          0.8,
          0.8,
          1.0
        ],
        "metallicFactor": 0.0,
        "roughnessFactor": 0.8211145618000169
      }
    }
  ],
  "meshes": [
    {
      "name": "ELFEBEN 2024  MALE_Material.001_0",
      "primitives": [
        {
          "attributes": {
            "NORMAL": 1,
            "POSITION": 0,
            "TEXCOORD_0": 2
          },
          "indices": 3,
          "material": 0,
          "mode": 4
        }
      ]
    },
    {
      "name": "ELFEBEN 2024  MALE_Material.002_0",
      "primitives": [
        {
          "attributes": {
            "NORMAL": 5,
            "POSITION": 4,
            "TEXCOORD_0": 6
          },
          "indices": 7,
          "material": 1,
          "mode": 4
        }
      ]
    }
  ],
  "nodes": [
    {
      "children": [
        1
      ],
      "matrix": [
        1.0,
        0.0,
        0.0,
        0.0,
        0.0,
        2.220446049250313e-16,
        -1.0,
        0.0,
        0.0,
        1.0,
        2.220446049250313e-16,
        0.0,
        0.0,
        0.0,
        0.0,
        1.0
      ],
      "name": "Sketchfab_model"
    },
    {
      "children": [
        2
      ],
      "matrix": [
        0.009999999776482582,
        0.0,
        0.0,
        0.0,
        0.0,
        0.0,
        0.009999999776482582,
        0.0,
        0.0,
        -0.009999999776482582,
        0.0,
        0.0,
        0.0,
        0.0,
        0.0,
        1.0
      ],
      "name": "3196e207becc4d23ad1a094f3db5fcca.fbx"
    },
    {
      "children": [
        3
      ],
      "name": "RootNode"
    },
    {
      "children": [
        4,
        5
      ],
      "matrix": [
        20.275297164916992,
        0.0,
        0.0,
        0.0,
        0.0,
        -2.772860318382524e-06,
        -17.019695281982198,
        0.0,
        0.0,
        23.688793182372734,
        -3.859394279244801e-06,
        0.0,
        0.0,
        143.72398376464844,
        -1.0343460417061578e-05,
        1.0
      ],
      "name": "ELFEBEN 2024  MALE"
    },
    {
      "mesh": 0,
      "name": "ELFEBEN 2024  MALE_Material.001_0"
    },
    {
      "mesh": 1,
      "name": "ELFEBEN 2024  MALE_Material.002_0"
    }
  ],
  "scene": 0,
  "scenes": [
    {
      "name": "Sketchfab_Scene",
      "nodes": [
        0
      ]
    }
  ]
}
